<mxfile host="app.diagrams.net" modified="2024-06-18T10:59:52.338Z" agent="Mozilla/5.0 (Windows NT 10.0; Win64; x64) AppleWebKit/537.36 (KHTML, like Gecko) Chrome/125.0.0.0 Safari/537.36" etag="r7uWHhAo4MwZ-Zw1Yfp0" version="24.5.5" type="github">
  <diagram name="Page-1" id="PZi2zeb1fQ3W3cilw6jz">
    <mxGraphModel dx="2074" dy="2198" grid="1" gridSize="10" guides="1" tooltips="1" connect="1" arrows="1" fold="1" page="1" pageScale="1" pageWidth="850" pageHeight="1100" math="0" shadow="0">
      <root>
        <mxCell id="0" />
        <mxCell id="1" parent="0" />
        <mxCell id="bpbwwGvcDx9js4norraC-1" value="User&amp;nbsp;Memroy&lt;br&gt;Src" style="rounded=1;whiteSpace=wrap;html=1;fillColor=#ffe6cc;strokeColor=#d79b00;" vertex="1" parent="1">
          <mxGeometry x="80" y="280" width="160" height="80" as="geometry" />
        </mxCell>
        <mxCell id="bpbwwGvcDx9js4norraC-2" value="DPG&lt;br&gt;SPM" style="rounded=1;whiteSpace=wrap;html=1;fillColor=#e1d5e7;strokeColor=#9673a6;" vertex="1" parent="1">
          <mxGeometry x="280" y="120" width="160" height="80" as="geometry" />
        </mxCell>
        <mxCell id="bpbwwGvcDx9js4norraC-7" value="TCCL&lt;br&gt;Memory" style="rounded=1;whiteSpace=wrap;html=1;fillColor=#f8cecc;strokeColor=#b85450;" vertex="1" parent="1">
          <mxGeometry x="80" y="-40" width="160" height="80" as="geometry" />
        </mxCell>
        <mxCell id="bpbwwGvcDx9js4norraC-10" value="User&amp;nbsp;Memroy&lt;br&gt;Src" style="rounded=1;whiteSpace=wrap;html=1;fillColor=#fff2cc;strokeColor=#d6b656;" vertex="1" parent="1">
          <mxGeometry x="480" y="280" width="160" height="80" as="geometry" />
        </mxCell>
        <mxCell id="bpbwwGvcDx9js4norraC-12" value="" style="shape=flexArrow;endArrow=classic;html=1;rounded=0;exitX=0.75;exitY=0;exitDx=0;exitDy=0;fillColor=#d5e8d4;strokeColor=#82b366;entryX=0.5;entryY=1;entryDx=0;entryDy=0;" edge="1" parent="1" source="bpbwwGvcDx9js4norraC-16" target="bpbwwGvcDx9js4norraC-10">
          <mxGeometry width="50" height="50" relative="1" as="geometry">
            <mxPoint x="189.99999999999955" y="-160" as="sourcePoint" />
            <mxPoint x="450" y="40" as="targetPoint" />
          </mxGeometry>
        </mxCell>
        <mxCell id="bpbwwGvcDx9js4norraC-13" value="TDMA" style="edgeLabel;html=1;align=center;verticalAlign=middle;resizable=0;points=[];" vertex="1" connectable="0" parent="bpbwwGvcDx9js4norraC-12">
          <mxGeometry x="0.0356" y="1" relative="1" as="geometry">
            <mxPoint as="offset" />
          </mxGeometry>
        </mxCell>
        <mxCell id="bpbwwGvcDx9js4norraC-14" value="" style="shape=flexArrow;endArrow=classic;html=1;rounded=0;exitX=0.5;exitY=1;exitDx=0;exitDy=0;fillColor=#d5e8d4;strokeColor=#82b366;entryX=0.25;entryY=0;entryDx=0;entryDy=0;" edge="1" parent="1" source="bpbwwGvcDx9js4norraC-1" target="bpbwwGvcDx9js4norraC-16">
          <mxGeometry width="50" height="50" relative="1" as="geometry">
            <mxPoint x="170" y="-30" as="sourcePoint" />
            <mxPoint x="340" y="-160" as="targetPoint" />
          </mxGeometry>
        </mxCell>
        <mxCell id="bpbwwGvcDx9js4norraC-15" value="TDMA" style="edgeLabel;html=1;align=center;verticalAlign=middle;resizable=0;points=[];" vertex="1" connectable="0" parent="bpbwwGvcDx9js4norraC-14">
          <mxGeometry x="-0.0063" y="-2" relative="1" as="geometry">
            <mxPoint as="offset" />
          </mxGeometry>
        </mxCell>
        <mxCell id="bpbwwGvcDx9js4norraC-16" value="LINK" style="rounded=1;whiteSpace=wrap;html=1;fillColor=#d5e8d4;strokeColor=#82b366;" vertex="1" parent="1">
          <mxGeometry x="40" y="440" width="600" height="40" as="geometry" />
        </mxCell>
        <mxCell id="bpbwwGvcDx9js4norraC-17" value="User&amp;nbsp;Memroy&lt;br&gt;Src" style="rounded=1;whiteSpace=wrap;html=1;fillColor=#ffe6cc;strokeColor=#d79b00;" vertex="1" parent="1">
          <mxGeometry x="800" y="280" width="160" height="80" as="geometry" />
        </mxCell>
        <mxCell id="bpbwwGvcDx9js4norraC-18" value="DPG&lt;br&gt;SPM" style="rounded=1;whiteSpace=wrap;html=1;fillColor=#e1d5e7;strokeColor=#9673a6;" vertex="1" parent="1">
          <mxGeometry x="1000" y="120" width="160" height="80" as="geometry" />
        </mxCell>
        <mxCell id="bpbwwGvcDx9js4norraC-19" value="TCCL&lt;br&gt;Memory" style="rounded=1;whiteSpace=wrap;html=1;fillColor=#f8cecc;strokeColor=#b85450;" vertex="1" parent="1">
          <mxGeometry x="800" y="-40" width="160" height="80" as="geometry" />
        </mxCell>
        <mxCell id="bpbwwGvcDx9js4norraC-20" value="User&amp;nbsp;Memroy&lt;br&gt;Src" style="rounded=1;whiteSpace=wrap;html=1;fillColor=#fff2cc;strokeColor=#d6b656;" vertex="1" parent="1">
          <mxGeometry x="1200" y="280" width="160" height="80" as="geometry" />
        </mxCell>
        <mxCell id="bpbwwGvcDx9js4norraC-21" value="" style="shape=flexArrow;endArrow=classic;html=1;rounded=0;exitX=0.75;exitY=0;exitDx=0;exitDy=0;fillColor=#d5e8d4;strokeColor=#82b366;entryX=0.5;entryY=1;entryDx=0;entryDy=0;" edge="1" parent="1" source="bpbwwGvcDx9js4norraC-25" target="bpbwwGvcDx9js4norraC-20">
          <mxGeometry width="50" height="50" relative="1" as="geometry">
            <mxPoint x="909.9999999999995" y="-160" as="sourcePoint" />
            <mxPoint x="1170" y="40" as="targetPoint" />
          </mxGeometry>
        </mxCell>
        <mxCell id="bpbwwGvcDx9js4norraC-22" value="TDMA" style="edgeLabel;html=1;align=center;verticalAlign=middle;resizable=0;points=[];" vertex="1" connectable="0" parent="bpbwwGvcDx9js4norraC-21">
          <mxGeometry x="0.0356" y="1" relative="1" as="geometry">
            <mxPoint as="offset" />
          </mxGeometry>
        </mxCell>
        <mxCell id="bpbwwGvcDx9js4norraC-23" value="" style="shape=flexArrow;endArrow=classic;html=1;rounded=0;exitX=0;exitY=0.5;exitDx=0;exitDy=0;fillColor=#d5e8d4;strokeColor=#82b366;entryX=0.25;entryY=0;entryDx=0;entryDy=0;" edge="1" parent="1" source="bpbwwGvcDx9js4norraC-20" target="bpbwwGvcDx9js4norraC-25">
          <mxGeometry width="50" height="50" relative="1" as="geometry">
            <mxPoint x="890" y="-30" as="sourcePoint" />
            <mxPoint x="1060" y="-160" as="targetPoint" />
          </mxGeometry>
        </mxCell>
        <mxCell id="bpbwwGvcDx9js4norraC-24" value="TDMA" style="edgeLabel;html=1;align=center;verticalAlign=middle;resizable=0;points=[];" vertex="1" connectable="0" parent="bpbwwGvcDx9js4norraC-23">
          <mxGeometry x="-0.0063" y="-2" relative="1" as="geometry">
            <mxPoint as="offset" />
          </mxGeometry>
        </mxCell>
        <mxCell id="bpbwwGvcDx9js4norraC-25" value="LINK" style="rounded=1;whiteSpace=wrap;html=1;fillColor=#d5e8d4;strokeColor=#82b366;" vertex="1" parent="1">
          <mxGeometry x="760" y="440" width="600" height="40" as="geometry" />
        </mxCell>
      </root>
    </mxGraphModel>
  </diagram>
</mxfile>
